<?xml version="1.0" encoding="UTF-8"?>
<svg width="62px" height="22px" viewBox="0 0 62 22" version="1.1" xmlns="http://www.w3.org/2000/svg" xmlns:xlink="http://www.w3.org/1999/xlink">
    <!-- Generator: Sketch 45.1 (43504) - http://www.bohemiancoding.com/sketch -->
    <title>传化智联(横版、竖版)源文件</title>
    <desc>Created with Sketch.</desc>
    <defs></defs>
    <g id="Page-1" stroke="none" stroke-width="1" fill="none" fill-rule="evenodd">
        <g id="1电子围栏管理-行政区划" transform="translate(-20.000000, -8.000000)" fill="#C3C4C6">
            <g id="web-head">
                <g id="传化智联(横版、竖版)源文件" transform="translate(20.000000, 8.000000)">
                    <path d="M52.1618344,16.120198 L53.2359192,16.120198 L52.9101304,16.9964648 L51.8258647,17.0068348 C51.8258647,17.0068348 52.1974675,16.120198 52.1618344,16.120198 Z M50.1052929,16.120198 L51.2048299,16.120198 L51.4033574,16.9964648 L50.4056294,16.9964648 C50.4056294,16.9964648 50.1052929,16.135753 50.1052929,16.120198 Z M49.4740771,16.8305444 L49.4740771,20.3563516 L49.9423985,20.3563516 L49.6827856,21.0770681 L49.4740771,21.0770681 L49.4740771,21.9481499 L48.5068918,21.9481499 L48.5068918,21.0666981 L46.2925463,21.0666981 L46.2925463,20.3563516 L46.6845109,20.3563516 L46.6845109,16.8305444 L46.2925463,16.8305444 L46.4401693,16.120198 L49.7795041,16.120198 L49.7795041,16.8305444 L49.4740771,16.8305444 Z M47.6516963,16.8305444 L47.6516963,17.603111 L48.5068918,17.603111 L48.5068918,16.8305444 L47.6516963,16.8305444 Z M47.6516963,20.3563516 L48.5068918,20.3563516 L48.532344,19.5993401 L47.6771485,19.5993401 L47.6516963,20.3563516 Z M47.6516963,18.9719538 L48.5068918,18.9719538 L48.4916204,18.2304973 L47.6364249,18.2304973 L47.6516963,18.9719538 Z M50.8688603,19.6045251 L49.7336901,19.6148951 L49.7336901,18.8215885 L51.0164833,18.8215885 L51.0113928,17.7275513 L49.7336901,17.7171812 L49.9423985,16.9964648 L53.505713,16.9964648 L53.3428186,17.6964412 L51.9887591,17.7275513 L51.9887591,18.8371435 L53.4802608,18.8371435 L53.302095,19.6045251 L52.2840052,19.6045251 C52.5079849,20.3252416 53.154472,21.2015084 53.4497181,21.491869 L52.9406731,21.9481499 C52.1669248,21.4503889 51.8564074,20.8955927 51.6171563,20.2215414 C51.3575434,20.8385576 51.0622973,21.6007542 50.2223732,21.9481499 L49.7336901,21.491869 C50.4209007,20.8748527 50.6805136,20.1748763 50.8688603,19.6045251 Z" id="Shape" fill-rule="nonzero"></path>
                    <path d="M39.2473644,16.0787179 L40.0262032,16.0787179 L40.0058414,16.4053736 L42.5357947,16.4053736 L42.5357947,17.0379449 L41.2682728,17.0379449 L41.2682728,17.4734857 L42.5357947,17.4734857 L42.5357947,18.069762 L41.6856896,18.069762 C41.746775,18.3290125 42.3830812,18.6815932 42.6986891,18.7697384 L42.2761818,19.2312043 C41.4311672,19.080839 41.2122779,18.7386283 40.9272127,18.3601226 C40.4588914,19.0289889 39.5578818,19.3763846 38.9113948,19.2623144 L38.9063043,18.6349281 C39.389897,18.572708 39.593515,18.4327127 39.7513189,18.1475371 L38.9063043,18.1475371 L38.9063043,17.4786708 L40.2705447,17.4786708 L40.2552734,17.0379449 L39.7004144,17.0379449 C39.6240577,17.1572001 39.3389925,17.4890408 39.2473644,17.3853406 L38.789224,16.8564695 C39.0081133,16.7164742 39.2473644,16.3898185 39.2473644,16.0787179 Z M42.8615834,18.2875324 L42.8615834,17.0846099 L42.8615834,16.2187132 L45.7529587,16.2187132 L45.7529587,18.3704926 C45.7529587,18.7075183 45.3049991,19.2312043 44.9079441,19.2312043 L43.6964171,19.2312043 C43.2230054,19.2312043 42.8615834,18.6660382 42.8615834,18.2875324 Z M44.7552306,16.8875795 L43.8694924,16.9083196 L43.8694924,18.4949328 L44.4854368,18.5053029 C44.5974267,18.5053029 44.6737834,18.4897478 44.7094166,18.4690078 C44.7450497,18.4430827 44.7603211,18.3704926 44.7603211,18.2460523 L44.7552306,16.8875795 Z M39.2168217,19.3971247 L45.4831649,19.3971247 L45.4831649,21.2118784 C45.4831649,21.4037238 45.3864463,21.994815 44.6228789,21.994815 L39.8836706,21.994815 C39.5069773,21.8703747 39.2168217,21.8237096 39.2168217,20.9941079 L39.2168217,19.3971247 Z M40.3265397,20.024511 L40.3214492,20.3770917 L44.4243514,20.3563516 L44.4243514,20.0193259 L40.3265397,20.024511 Z M40.3570824,21.004478 L40.3367206,21.3726137 L44.2919997,21.3674287 C44.363266,21.3674287 44.4039896,21.3103936 44.3988991,21.004478 L40.3570824,21.004478 Z" id="Shape" fill-rule="nonzero"></path>
                    <path d="M25.9918343,17.4631157 L25.9918343,21.9325949 L24.9075686,21.9325949 L24.9075686,18.7697384 L24.5359658,19.1067641 L23.960745,18.2616074 C23.960745,18.2616074 25.0806439,17.1883102 25.5489652,16.120198 L26.7655826,16.120198 C26.7655826,16.120198 26.5059697,16.7838793 25.9918343,17.4631157 Z" id="Shape" fill-rule="nonzero"></path>
                    <path d="M33.612237,17.4631157 L33.612237,21.9325949 L32.5228808,21.9325949 L32.5228808,18.7697384 L32.1563685,19.1067641 L31.5811477,18.2616074 C31.5811477,18.2616074 32.7010466,17.1883102 33.1642775,16.120198 L34.3859853,16.120198 C34.3859853,16.120198 34.1263724,16.7838793 33.612237,17.4631157 Z" id="Shape" fill-rule="nonzero"></path>
                    <path d="M31.0211983,18.8786236 L31.2349972,18.0593919 L28.4963354,18.0593919 L28.6694107,17.5616309 L30.8328517,17.5616309 L31.0415601,16.7372142 L28.9697472,16.7372142 L29.193727,16.120198 L28.0178332,16.120198 L27.7938534,16.7372142 L26.8521203,16.7372142 L26.6434118,17.5616309 L27.4986073,17.5616309 L27.3153512,18.0593919 L26.3176231,18.0593919 L26.3176231,18.8786236 L27.0201051,18.8786236 L26.8215776,19.4334198 C26.679045,19.8482206 26.9030248,20.1282112 27.2949894,20.1282112 L29.4075258,20.1282112 L28.4556118,20.9422578 C28.4556118,20.9422578 29.7842191,21.2170634 29.5347871,21.1600283 L30.7514045,20.1282112 L30.7514045,19.3504596 L28.0280141,19.3504596 L28.2010893,18.8786236 L31.0211983,18.8786236 Z" id="Shape"></path>
                    <path d="M36.7581347,20.9941079 L36.727592,20.9941079 C35.8571252,20.9941079 35.9131201,20.3667217 35.9131201,20.1126561 L35.9131201,19.3089795 C36.7683156,18.9149187 37.6947774,18.3704926 38.3921689,17.8105114 L37.9798425,16.8046194 C37.4555262,17.2297902 36.6868684,17.7742164 35.9131201,18.090502 L35.9131201,16.120198 L34.8339448,16.120198 L34.8339448,20.527457 C34.8339448,21.040773 34.7779499,21.9170398 36.2338184,21.9170398 L36.5137931,21.9170398 C38.0969229,21.9170398 38.4430734,21.6266792 38.4430734,21.6266792 L38.4430734,20.6778223 C37.9238476,20.9111478 37.1857324,20.9785529 36.7581347,20.9941079 Z" id="Shape"></path>
                    <path d="M26.8623012,20.3511666 C26.8623012,20.3511666 28.5319686,21.1703983 30.5274247,21.1703983 L30.5274247,21.984445 C30.5274247,21.984445 28.5319686,22.1814754 26.6485023,21.1444733 L26.8623012,20.3511666 Z" id="Shape"></path>
                    <path d="M8.78611556,13.5795428 C9.2646178,13.8647184 13.0060981,16.0631629 13.0060981,16.0631629 C13.0060981,16.0631629 11.2804357,18.2149423 10.6186773,17.8260665 C9.40205993,17.110535 6.14417235,15.1920811 6.14417235,15.1920811 C6.14417235,15.1920811 8.05818131,13.1543719 8.78611556,13.5795428 Z" id="Shape" fill-rule="nonzero"></path>
                    <path d="M8.83702006,12.8173462 C8.83702006,11.9618195 6.14417235,11.2929531 6.14417235,11.2929531 L6.14417235,18.1267971 C6.14417235,18.1267971 8.83702006,17.6808862 8.83702006,16.9083196 C8.83702006,16.5194438 8.83702006,16.0942729 8.83702006,15.6846571 C8.83702006,15.6846571 8.83702006,13.3825124 8.83702006,12.8173462 Z" id="Shape" fill-rule="nonzero"></path>
                    <path d="M12.8686559,11.749234 C13.3471582,11.4640584 17.0886384,9.26561395 17.0886384,9.26561395 C17.0886384,9.26561395 18.0558238,11.8633043 17.3940654,12.2521801 C16.177448,12.9677115 12.9195604,14.8861654 12.9195604,14.8861654 C12.9195604,14.8861654 12.1356312,12.1795899 12.8686559,11.749234 Z" id="Shape" fill-rule="nonzero"></path>
                    <path d="M12.2425307,11.3240632 C11.5145964,10.8937073 9.60058746,12.9366015 9.60058746,12.9366015 L15.4138806,16.3535235 C15.4138806,16.3535235 16.381066,13.7558331 15.7193076,13.3669573 C15.3884284,13.1751119 15.0320969,12.9625265 14.6808559,12.7551261 L14.6808559,12.7551261 C14.6808559,12.7551261 12.7261234,11.6092387 12.2425307,11.3240632 Z" id="Shape" fill-rule="nonzero"></path>
                    <path d="M13.3522486,7.23308979 C13.3522486,6.66792364 13.3522486,2.26584963 13.3522486,2.26584963 C13.3522486,2.26584963 16.0450963,2.71694556 16.0450963,3.48951214 C16.0450963,4.92576008 16.0450963,8.75748291 16.0450963,8.75748291 C16.0450963,8.75748291 13.3522486,8.09380156 13.3522486,7.23308979 Z" id="Shape" fill-rule="nonzero"></path>
                    <path d="M12.6803093,7.57011548 C11.9472846,8.00047136 12.7261234,10.7070469 12.7261234,10.7070469 L18.5394165,7.29012491 C18.5394165,7.29012491 16.8137542,5.13834551 16.1570862,5.52722131 C15.826207,5.7190667 15.4647851,5.93165213 15.1135441,6.13905256 C15.1135441,6.13905256 13.1588115,7.2849399 12.6803093,7.57011548 Z" id="Shape" fill-rule="nonzero"></path>
                    <path d="M9.75330094,4.5472543 C9.26970825,4.26207872 5.53331843,2.06363422 5.53331843,2.06363422 C5.53331843,2.06363422 7.25898076,-0.0829601697 7.91564872,0.300730615 C9.13735657,1.01626208 12.3952441,2.934716 12.3952441,2.934716 C12.3952441,2.934716 10.4863256,4.97761018 9.75330094,4.5472543 Z" id="Shape" fill-rule="nonzero"></path>
                    <path d="M9.70239644,5.30945086 C9.70239644,6.17016262 12.3952441,6.83384398 12.3952441,6.83384398 L12.3952441,0 C12.3952441,0 9.70239644,0.445910912 9.70239644,1.21847749 C9.70239644,1.60735329 9.70239644,2.03252416 9.70239644,2.44732501 L9.70239644,2.44732501 C9.70239644,2.44732501 9.70239644,4.7442847 9.70239644,5.30945086 Z" id="Shape" fill-rule="nonzero"></path>
                    <path d="M5.67076057,6.37756305 C5.18716788,6.66273863 1.45077806,8.86118313 1.45077806,8.86118313 C1.45077806,8.86118313 0.483592687,6.26349281 1.1453511,5.87461702 C2.36196849,5.15908555 5.61985607,3.24063163 5.61985607,3.24063163 C5.61985607,3.24063163 6.40378527,5.94720716 5.67076057,6.37756305 Z" id="Shape" fill-rule="nonzero"></path>
                    <path d="M6.29179538,6.80273391 C7.02482009,7.23308979 8.93882904,5.19019562 8.93882904,5.19019562 L3.1255359,1.77327363 C3.1255359,1.77327363 2.15835052,4.37096394 2.82010893,4.75983974 C3.15098814,4.95168513 3.5073196,5.16427056 3.8585606,5.37167099 L3.8585606,5.37167099 C3.8585606,5.37167099 5.81329315,6.52274334 6.29179538,6.80273391 Z" id="Shape" fill-rule="nonzero"></path>
                    <path d="M5.18716788,10.8937073 C5.18716788,11.4640584 5.18716788,15.8609474 5.18716788,15.8609474 C5.18716788,15.8609474 2.49432018,15.4150365 2.49432018,14.6372849 C2.49432018,13.206222 2.49432018,9.36931416 2.49432018,9.36931416 C2.49432018,9.36931416 5.18716788,10.0381805 5.18716788,10.8937073 Z" id="Shape" fill-rule="nonzero"></path>
                    <path d="M5.85910719,10.5566816 C6.5921319,10.1315107 5.81329315,7.41975018 5.81329315,7.41975018 L0,10.8366722 C0,10.8366722 1.72566233,12.9884516 2.38233029,12.5995758 C2.7132095,12.4077304 3.0746314,12.1951449 3.42587241,11.9877445 C3.42587241,11.9929295 5.38060495,10.8418572 5.85910719,10.5566816 Z" id="Shape" fill-rule="nonzero"></path>
                    <path d="M52.4876231,7.79825595 L50.6652423,7.79825595 L50.6652423,7.39901013 C50.6601518,7.17605468 50.7314181,6.98420929 50.8637698,6.84939901 C51.0113928,6.69384869 51.2404631,6.61607353 51.5407996,6.61607353 L52.2432816,6.61607353 L52.2432816,5.44426114 L51.09284,5.44426114 C49.6217002,5.44426114 49.1024743,6.32052793 49.1024743,7.07753948 L49.1024743,7.79825595 L48.3999923,7.79825595 L48.1301985,8.95969833 L49.1024743,8.95969833 L49.1024743,12.5529107 L50.6652423,12.5529107 L50.6652423,8.97006835 L52.2381911,8.97006835 L52.4876231,7.79825595 Z" id="Shape" fill-rule="nonzero"></path>
                    <path d="M61.2279247,7.75159086 C60.5916185,7.75159086 60.1487494,7.90195616 59.792418,8.23379684 L59.7109708,8.311572 L59.7109708,7.79825595 L58.2754641,7.79825595 L58.2754641,12.5529107 L59.8738651,12.5529107 L59.8738651,10.1522508 C59.8738651,9.1411737 60.688337,9.03747349 61.039578,9.03747349 L61.2635578,9.03747349 L61.5435325,7.75159086 L61.2279247,7.75159086 Z" id="Shape" fill-rule="nonzero"></path>
                    <path d="M53.2817332,12.4803205 C53.7449641,12.692906 54.2692804,12.692906 54.4474461,12.692906 L54.4474461,12.692906 L54.5187124,12.692906 L54.5797978,12.698091 C55.0786619,12.698091 55.3891793,12.6669809 55.7200585,12.6306858 C56.1069326,12.5892058 56.5345304,12.5425407 57.3439118,12.5425407 L57.3439118,9.29153901 C57.3439118,8.54489748 57.0995703,8.00047136 56.677063,7.79825595 C56.371636,7.64789064 55.9084051,7.57530049 55.2975512,7.57530049 C54.4270843,7.57530049 53.4649894,7.73085081 53.1646529,7.80862597 L52.950854,8.87155315 C52.9661254,8.86636814 52.9915776,8.86118313 53.0119394,8.86118313 C53.2817332,8.80414801 53.8518636,8.68489276 54.4525366,8.68489276 C54.7070591,8.68489276 54.9463102,8.70563281 55.1550186,8.74711289 L55.1906517,8.75748291 C55.3688175,8.78859298 55.7913248,8.86636814 55.7913248,9.37968419 L55.7913248,9.5818996 L54.7935967,9.5818996 C53.256281,9.5818996 52.4723518,10.1004007 52.4723518,11.1322178 C52.4723518,11.7803441 52.7472361,12.23144 53.2817332,12.4803205 Z M55.0226669,10.5359416 L55.0226669,10.5359416 L55.8218675,10.5359416 L55.8218675,11.723309 L55.7811439,11.733679 C55.4349933,11.7855291 55.1346568,11.7855291 55.0226669,11.7855291 L54.9921242,11.7855291 C54.4016321,11.7855291 54.0656624,11.5677587 54.0656624,11.1944379 C54.0656624,10.774452 54.411813,10.5359416 55.0226669,10.5359416 Z" id="Shape" fill-rule="nonzero"></path>
                    <path d="M47.8044098,10.9974075 C47.8044098,9.90337026 46.7405058,9.68559981 45.9565766,9.52486448 C45.472984,9.42634928 45.0912003,9.34857412 45.0912003,9.08413858 C45.0912003,8.80414801 45.3100896,8.66415272 45.7478682,8.66415272 C46.2009182,8.66415272 46.776139,8.81970304 47.0866564,8.8974782 C47.1375609,8.91303323 47.1782845,8.92340325 47.2088272,8.92858826 L47.4633497,7.79825595 C46.9034002,7.65307565 46.3332699,7.57530049 45.8140441,7.57530049 C44.261457,7.57530049 43.3349952,8.20787179 43.3349952,9.27079896 C43.3349952,10.3233561 44.3581756,10.5774216 45.1828283,10.7848221 C45.6969637,10.9092623 46.0991092,11.0129625 46.0991092,11.2877681 C46.0991092,11.5884987 45.7936823,11.738864 45.1930092,11.738864 C44.6177885,11.738864 43.9458492,11.6040537 43.7320503,11.5522036 L43.4673469,12.4958756 C43.8542211,12.5840207 44.5210699,12.6825359 45.1980997,12.6825359 C46.3892648,12.6825359 47.8044098,12.3921753 47.8044098,10.9974075 Z" id="Shape" fill-rule="nonzero"></path>
                    <polygon id="Shape" fill-rule="nonzero" points="29.3820736 5.4287061 23.0444642 5.4287061 23.0444642 6.61607353 25.2944428 6.61607353 25.2944428 12.5529107 26.9488388 12.5529107 26.9488388 6.61607353 29.0562848 6.61607353"></polygon>
                    <path d="M31.4386151,7.75159086 C30.802309,7.75159086 30.3594399,7.90195616 30.0031084,8.23379684 L29.9216612,8.311572 L29.9216612,7.79825595 L28.4861545,7.79825595 L28.4861545,12.5529107 L30.0845556,12.5529107 L30.0845556,10.1522508 C30.0845556,9.44190431 30.5070629,9.03747349 31.2451781,9.03747349 L31.4742483,9.03747349 L31.754223,7.75159086 L31.4386151,7.75159086 Z" id="Shape" fill-rule="nonzero"></path>
                    <path d="M32.706137,12.4803205 C33.1693679,12.692906 33.6936842,12.692906 33.8718499,12.692906 L33.8718499,12.692906 L33.9431162,12.692906 L34.0042016,12.698091 C34.5081561,12.698091 34.813583,12.6669809 35.1444622,12.6306858 C35.5313364,12.5892058 35.9589341,12.5425407 36.7683156,12.5425407 L36.7683156,9.29153901 C36.7683156,8.54489748 36.523974,8.00047136 36.1014667,7.79825595 C35.7960398,7.64789064 35.3328089,7.57530049 34.7270454,7.57530049 C33.8260359,7.57530049 32.8893932,7.74122083 32.6145089,7.80862597 L32.3752578,8.87155315 C32.3956196,8.86636814 32.4159814,8.86118313 32.4363432,8.86118313 C32.7112275,8.80414801 33.2762673,8.68489276 33.8769404,8.68489276 C34.1314628,8.68489276 34.3707139,8.70563281 34.5845128,8.74711289 L34.6150555,8.75748291 C34.7932212,8.78859298 35.2157285,8.86636814 35.2157285,9.37968419 L35.2157285,9.5818996 L34.2180005,9.5818996 C32.6806848,9.5818996 31.8967556,10.1004007 31.8967556,11.1322178 C31.8967556,11.7803441 32.1716398,12.23144 32.706137,12.4803205 Z M34.4470707,10.5359416 L34.4470707,10.5359416 L35.2462712,10.5359416 L35.2462712,11.723309 L35.2055476,11.733679 C34.8644875,11.7855291 34.5590606,11.7855291 34.4470707,11.7855291 L34.416528,11.7855291 C33.8260359,11.7855291 33.4900662,11.5677587 33.4900662,11.1944379 C33.4900662,10.774452 33.8362168,10.5359416 34.4470707,10.5359416 Z" id="Shape" fill-rule="nonzero"></path>
                    <path d="M42.5765183,12.5529107 L42.5765183,9.18783879 C42.5765183,8.56563752 42.154011,7.80344096 40.9730267,7.71529578 C40.9170318,7.71011077 40.8661273,7.71011077 40.8152228,7.71011077 C40.3010874,7.71011077 39.695324,7.90714117 39.3797161,8.18194674 L39.2982689,8.24935187 L39.2982689,7.79825595 L37.6998678,7.79825595 L37.6998678,12.5529107 L39.2982689,12.5529107 L39.2982689,9.83078011 C39.2982689,9.21894886 39.6189672,8.85599811 40.1534644,8.85599811 C40.8915796,8.85599811 40.9730267,9.40560924 40.9730267,9.81522508 L40.9730267,12.5529107 L42.5765183,12.5529107 Z" id="Shape" fill-rule="nonzero"></path>
                </g>
            </g>
        </g>
    </g>
</svg>