<svg xmlns="http://www.w3.org/2000/svg" xmlns:xlink="http://www.w3.org/1999/xlink" width="90" height="51" viewBox="0 0 90 51">
    <defs>
        <path id="a" d="M17.087 3.507l14.23 2.787 12.26-6.03c.438-.117 1.148-.126 1.597-.016l12.393 4.889L74.76 1.443 89.985 25.91l-23.813 4.575-21.18-4.575-21.352 4.575L0 26.766l17.087-23.26z"/>
    </defs>
    <g fill="none" fill-rule="evenodd">
        <ellipse cx="45.462" cy="22.298" fill="#333" rx="1.176" ry="1.17"/>
        <g transform="translate(0 19.826)">
            <use fill="#EEE" xlink:href="#a"/>
            <path stroke="#BBB" d="M17.302 4.058L.89 26.4l22.737 3.577 21.262-4.556h.21l21.08 4.554 22.998-4.419-14.654-23.55-16.998 3.651-.14-.055L45.055.733c-.367-.09-.991-.082-1.26-.02L31.388 6.817 17.302 4.058z"/>
        </g>
        <path stroke="#BBB" stroke-dasharray="2" d="M31.204 26.384l-7.38 23.382M58.52 25.422l7.385 24.344M44.317 22.822l.081 24.303"/>
        <g>
            <path fill="#21ABBD" d="M20.89 29.59c.632.9 1.674.9 2.318.004 0 0 4.8-6.532 6.462-9.806 1.662-3.273 2.402-4.198 2.402-6.96C32.072 7.4 27.506 3 22.034 3c-5.471 0-10 4.49-10 9.919 0 3.109 1.52 4.886 2.99 7.785 1.128 2.221 5.866 8.887 5.866 8.887z"/>
            <path fill="#FFF" d="M19.375 17.194h7.14v-1.198h-5.706V6.502h-1.434z"/>
        </g>
        <g>
            <path fill="#22ABBD" d="M43.104 34.59c.632.9 1.674.9 2.319.004 0 0 4.8-6.532 6.461-9.806 1.662-3.273 2.403-4.198 2.403-6.96C54.287 12.4 49.72 8 44.249 8c-5.472 0-10.001 4.49-10.001 9.919 0 3.109 1.52 4.886 2.991 7.785 1.127 2.221 5.865 8.887 5.865 8.887z"/>
            <path fill="#FFF" d="M41.83 18.505h2.758c.254 0 .5.023.737.07.237.046.446.126.628.24.182.113.329.266.439.46.11.192.165.436.165.73 0 .496-.153.889-.457 1.179-.305.29-.72.434-1.246.434h-3.023v-3.113zm-1.206 4.122h4.383c.449 0 .845-.074 1.188-.22.343-.148.63-.341.864-.58.233-.24.408-.515.527-.826.119-.311.178-.63.178-.958 0-.555-.148-1.025-.445-1.412-.296-.386-.724-.638-1.283-.756v-.025a2.1 2.1 0 0 0 .99-.775c.238-.349.357-.763.357-1.242 0-.445-.104-.825-.312-1.14a2.333 2.333 0 0 0-.756-.738 1.559 1.559 0 0 0-.495-.189 5.405 5.405 0 0 0-.616-.094 8.414 8.414 0 0 0-.654-.038c-.22-.004-.432-.006-.636-.006h-3.29v8.999zm1.207-7.991h2.414c.262 0 .51.015.743.044.233.03.438.095.616.195.178.101.318.246.42.435.1.19.152.44.152.75 0 .48-.15.838-.451 1.078-.301.24-.794.359-1.48.359H41.83v-2.861z"/>
        </g>
        <g>
            <path fill="#22ABBD" d="M71.917 26.752c.632.899 1.675.898 2.319.003 0 0 4.8-6.532 6.462-9.806 1.661-3.273 2.402-4.198 2.402-6.96 0-5.428-4.566-9.828-10.038-9.828s-10.001 4.49-10.001 9.919c0 3.109 1.52 4.886 2.991 7.785 1.128 2.221 5.865 8.887 5.865 8.887z"/>
            <path fill="#FFF" d="M76.547 8.137c-.016-.486-.112-.904-.286-1.253a2.538 2.538 0 0 0-.697-.871c-.29-.23-.63-.4-1.02-.506a4.784 4.784 0 0 0-1.27-.16c-.407 0-.803.05-1.189.154a3.28 3.28 0 0 0-1.033.469c-.302.21-.545.477-.728.802-.182.326-.273.71-.273 1.155 0 .403.08.737.242 1 .162.263.378.481.647.654.27.173.575.311.915.414.34.103.689.191 1.046.265.356.075.705.15 1.045.229.34.078.643.177.909.296.265.12.479.274.64.463.162.19.243.436.243.741 0 .321-.066.584-.199.79a1.445 1.445 0 0 1-.523.488c-.215.12-.458.204-.728.253-.27.05-.537.074-.802.074-.34 0-.666-.041-.977-.123a2.43 2.43 0 0 1-.822-.383 1.97 1.97 0 0 1-.572-.66c-.146-.268-.218-.587-.218-.958h-1.12c0 .535.097.998.292 1.39.195.39.46.714.797.969.336.255.726.444 1.17.568a5.25 5.25 0 0 0 1.412.185c.407 0 .815-.05 1.226-.148.41-.1.782-.253 1.114-.463.332-.21.604-.482.815-.815.212-.334.318-.735.318-1.204 0-.428-.081-.788-.243-1.08a2.158 2.158 0 0 0-.641-.723 3.339 3.339 0 0 0-.909-.45c-.34-.111-.688-.208-1.045-.29a44.794 44.794 0 0 0-1.045-.229 5.475 5.475 0 0 1-.915-.265 1.801 1.801 0 0 1-.647-.414c-.162-.169-.243-.389-.243-.66 0-.289.056-.53.168-.723.112-.193.261-.348.448-.463.187-.115.4-.197.64-.247.242-.05.486-.074.735-.074.614 0 1.118.142 1.512.426.395.284.625.743.691 1.377h1.12z"/>
        </g>
        <path stroke="#22ABBD" stroke-width=".5" d="M21.64 33.474l-.977 2.89 7.503-1.192 7.13 7.222 9.468-6.03 15.78-2.89 5.344 1.044 13.265 3.421-6.11-8.628"/>
        <ellipse cx="22.269" cy="32.941" fill="#22ABBD" rx="2.269" ry="1"/>
        <ellipse cx="44.269" cy="36.941" fill="#22ABBD" rx="2.269" ry="1"/>
        <ellipse cx="72.983" cy="29.164" fill="#22ABBD" rx="2.269" ry="1"/>
    </g>
</svg>
